<?xml version="1.0" standalone="no"?><!DOCTYPE svg PUBLIC "-//W3C//DTD SVG 1.1//EN" "http://www.w3.org/Graphics/SVG/1.1/DTD/svg11.dtd"><svg t="1764944315597" class="icon" viewBox="0 0 1024 1024" version="1.1" xmlns="http://www.w3.org/2000/svg" p-id="11882" xmlns:xlink="http://www.w3.org/1999/xlink" width="200" height="200"><path d="M878.4608 197.17866667c37.99573333-70.5632-5.42826667-162.8384-5.42826667-162.8384-97.70346667 0-168.26666667 65.13493333-168.26666666 65.13493333-37.99573333-21.712-162.8384-21.712-162.8384-21.712s-124.84266667 0-162.8384 21.712c0 0-70.5632-65.13493333-168.26666667-65.13493333 0 0-43.424 92.2752-5.42826667 162.8384 0 0-86.84693333 81.41973333-54.27946666 255.1136 30.60373333 163.2192 173.69386667 206.2624 265.96906666 206.2624 0 0-37.99573333 32.56746667-32.56746666 86.84693333 0 0-54.27946667 32.56746667-108.55893334 10.85546667s-81.41973333-75.99146667-81.41973333-75.99146667-54.27946667-70.5632-108.55893333-43.424c0 0-16.28373333 16.28373333 43.424 43.424 0 0 43.424 65.13493333 59.70773333 103.13066667 16.28373333 37.99573333 103.13066667 70.5632 189.97866667 48.8512v124.84266666s0 10.85546667-21.712 16.28373334-21.712 16.28373333-10.85546667 16.28373333H737.33333333c10.85546667 0 10.85546667-10.85546667-10.85546666-16.28373333-21.712-5.42826667-21.712-16.28373333-21.712-16.28373334v-124.84266666s0.4768-65.09866667 0-86.84693334c-1.1936-54.53653333-37.99573333-86.84693333-37.99573334-86.84693333 92.2752 0 235.36533333-43.0432 265.96906667-206.2624 32.56853333-173.6928-54.2784-255.11253333-54.2784-255.11253333z" fill="#008080" p-id="11883"></path></svg>