<?xml version="1.0" standalone="no"?><!DOCTYPE svg PUBLIC "-//W3C//DTD SVG 1.1//EN" "http://www.w3.org/Graphics/SVG/1.1/DTD/svg11.dtd"><svg t="1757143118500" class="icon" viewBox="0 0 1024 1024" version="1.1" xmlns="http://www.w3.org/2000/svg" p-id="7396" xmlns:xlink="http://www.w3.org/1999/xlink" width="200" height="200"><path d="M857.506909 342.946909c-24.017455-29.370182-52.782545-48.965818-81.594182-73.495273-4.794182 0-9.588364-4.887273-14.429091-4.887272 38.446545-19.549091 67.211636-58.786909 67.211637-97.978182 0-68.608-62.370909-117.573818-139.170909-117.573818-19.176727 0-33.559273 4.887273-47.941819 9.774545-9.634909 4.887273-14.429091 4.887273-14.42909 9.774546 0 0-9.588364 0-9.588364-4.887273-4.794182-9.774545-14.429091-19.549091-28.811636-29.370182C564.782545 14.708364 540.858182 4.887273 512 0c-28.811636 4.887273-52.782545 14.708364-76.8 34.304a58.461091 58.461091 0 0 0-23.970909 24.482909c0 4.887273-9.588364 4.887273-9.588364 4.887273-4.794182-4.887273-9.588364-9.774545-19.223272-9.774546-14.382545-4.887273-28.765091-9.774545-47.941819-9.774545-76.8 0-139.170909 48.965818-139.170909 117.573818 0 44.078545 28.765091 78.382545 67.165091 97.978182l-14.429091 14.708364c-28.765091 19.549091-52.736 44.078545-81.547636 68.561454C89.693091 421.376 46.545455 509.579636 46.545455 612.445091 46.545455 891.717818 257.675636 1024 507.205818 1024h9.588364C771.118545 1024 977.454545 891.717818 977.454545 612.445091c0-97.978182-43.194182-191.069091-119.947636-269.498182z m-211.130182 245.015273h-95.976727v39.191273h71.959273c19.223273 0 38.4 14.661818 38.4 39.191272 0 19.549091-14.429091 39.191273-38.4 39.191273h-71.959273v58.786909c0 19.595636-14.429091 39.191273-38.4 39.191273a38.213818 38.213818 0 0 1-38.4-39.191273v-58.786909H401.687273a38.213818 38.213818 0 0 1-38.4-39.191273c0-19.595636 14.429091-39.191273 38.4-39.191272h71.959272v-39.191273H377.623273a38.213818 38.213818 0 0 1-38.353455-39.237818c0-24.482909 19.176727-39.191273 38.353455-39.191273h43.194182L353.652364 440.971636a39.005091 39.005091 0 0 1 0-53.899636 37.096727 37.096727 0 0 1 52.782545 0L512 494.871273l105.565091-107.799273a37.096727 37.096727 0 0 1 52.782545 0c14.429091 14.708364 14.429091 39.191273 0 53.899636l-67.165091 68.561455h43.194182c19.176727 0 38.353455 14.708364 38.353455 39.191273a38.213818 38.213818 0 0 1-38.353455 39.237818z" fill="#027AFF" p-id="7397"></path></svg>